<svg width="200" height="40" viewBox="0 0 200 40" fill="none" xmlns="http://www.w3.org/2000/svg">
<path d="M29.9254 17.2104C28.7971 18.3456 28.2332 19.9246 28.3872 21.5178L28.3607 21.4913C28.519 23.3661 27.8427 25.2154 26.5123 26.5458C25.1818 27.8762 23.3326 28.5525 21.4577 28.3942L21.4842 28.4207C19.2142 28.2094 17.0555 29.4442 16.0867 31.5079C15.118 33.5717 15.5473 36.0213 17.1601 37.6326C18.7729 39.2439 21.2228 39.671 23.2857 38.7004C25.3486 37.7298 26.5814 35.5699 26.368 33.3001L26.396 33.3266C26.2377 31.4518 26.914 29.6025 28.2444 28.2721C29.5748 26.9417 31.4241 26.2654 33.2989 26.4236L33.271 26.3972C35.7658 26.6215 38.0872 25.1004 38.8774 22.7234C39.6676 20.3464 38.719 17.7382 36.5864 16.4242C34.4538 15.1102 31.6976 15.4358 29.9298 17.2104H29.9254Z" fill="#5454D4"/>
<path d="M19.0769 24.953L19.0489 24.9265C20.6431 25.0872 22.2252 24.5234 23.3586 23.3909C24.492 22.2584 25.0569 20.6767 24.8974 19.0824L24.9254 19.1089C24.7671 17.2341 25.4434 15.3848 26.7738 14.0544C28.1042 12.724 29.9535 12.0477 31.8283 12.206L31.8004 12.1795C34.0706 12.3927 36.2306 11.1593 37.2009 9.09582C38.1711 7.03236 37.743 4.58207 36.1307 2.96974C34.5184 1.35741 32.0681 0.92938 30.0046 1.8996C27.9412 2.86982 26.7078 5.02989 26.921 7.30007L26.8945 7.27213C27.0533 9.14709 26.3772 10.9967 25.0466 12.3272C23.7161 13.6578 21.8665 14.3339 19.9916 14.1751L20.018 14.203C18.4238 14.0424 16.8418 14.6061 15.7084 15.7387C14.575 16.8712 14.0101 18.4528 14.1695 20.0471L14.143 20.0207C14.3008 21.8954 13.6243 23.7443 12.294 25.0746C10.9637 26.4049 9.11479 27.0813 7.24009 26.9236L7.26656 26.9501C4.99638 26.7369 2.83631 27.9703 1.86609 30.0337C0.895871 32.0972 1.3239 34.5475 2.93623 36.1598C4.54856 37.7721 6.99885 38.2002 9.06231 37.23C11.1258 36.2597 12.3592 34.0997 12.146 31.8295L12.1739 31.856C12.0157 29.9811 12.6919 28.1319 14.0223 26.8014C15.3528 25.471 17.202 24.7948 19.0769 24.953Z" fill="#FF7143"/>
<path d="M9.22099 22.0016C10.3495 20.8665 10.9129 19.2873 10.7578 17.6942L10.7857 17.7207C10.6273 15.8453 11.304 13.9955 12.6351 12.665C13.9662 11.3344 15.8163 10.6586 17.6916 10.8178L17.6636 10.7913C19.933 11.0039 22.0921 9.7706 23.0617 7.7078C24.0313 5.64499 23.6033 3.19566 21.9916 1.58393C20.3798 -0.0277992 17.9305 -0.455804 15.8677 0.513824C13.8049 1.48345 12.5716 3.64248 12.7842 5.91187L12.7578 5.8854C12.916 7.76024 12.2397 9.60949 10.9093 10.9399C9.5789 12.2703 7.72964 12.9466 5.85481 12.7883L5.88128 12.8148C3.38658 12.5911 1.06564 14.1127 0.275915 16.4896C-0.513813 18.8666 0.435108 21.4746 2.56768 22.7882C4.70026 24.1019 7.45632 23.7762 9.22393 22.0016H9.22099Z" fill="#5454D4"/>
<path d="M54.7754 7.33398H59.143V28.5884H54.7754V7.33398Z" fill="#19191B"/>
<path fill-rule="evenodd" clip-rule="evenodd" d="M66.3584 14.1596C63.4761 15.3636 61.6041 18.1867 61.6166 21.3104C61.6014 23.3586 62.4105 25.3269 63.8618 26.7724C65.3131 28.2178 67.2846 29.019 69.3327 28.9957C72.4565 28.9957 75.272 27.1123 76.4645 24.2252C77.657 21.3381 76.9911 18.0168 74.7779 15.8124C72.5647 13.6081 69.2408 12.9555 66.3584 14.1596ZM69.2707 18.0536C71.1085 18.0197 72.6304 19.473 72.6813 21.3104C72.7309 22.2213 72.3973 23.1114 71.7613 23.7653C71.1252 24.4193 70.2447 24.7774 69.3327 24.753C67.4946 24.7531 65.9997 23.2721 65.9827 21.4341C65.9657 19.596 67.4329 18.0875 69.2707 18.0536Z" fill="#19191B"/>
<path fill-rule="evenodd" clip-rule="evenodd" d="M94.4563 27.8545V14.031L90.2048 14.0281V15.5133C89.1677 14.2443 87.5904 13.5421 85.9533 13.6207C81.96 13.7466 78.788 17.0203 78.788 21.0156C78.788 25.0109 81.96 28.2845 85.9533 28.4104C87.5904 28.489 89.1677 27.7868 90.2048 26.5178V27.8486C90.2779 28.7267 89.948 29.5905 89.3082 30.1963C88.6684 30.8021 87.7879 31.0843 86.9151 30.9633C85.5345 31.1043 84.2115 30.3733 83.596 29.1295L79.8695 31.2839C81.3274 33.6593 83.9902 35.0214 86.7695 34.8133C90.6416 34.8133 94.4563 32.7457 94.4563 27.8545ZM88.1309 17.6533C89.4447 18.2458 90.2663 19.5777 90.2063 21.0178C90.2335 21.9476 89.8662 22.8456 89.1953 23.4899C88.5243 24.1343 87.6122 24.4649 86.6842 24.4001C85.2429 24.4019 83.9454 23.5271 83.4065 22.1903C82.8676 20.8535 83.1957 19.3234 84.2353 18.3251C85.2748 17.3267 86.817 17.0608 88.1309 17.6533Z" fill="#19191B"/>
<path fill-rule="evenodd" clip-rule="evenodd" d="M101.672 14.1596C98.7893 15.3636 96.9173 18.1867 96.9298 21.3104C96.9147 23.3586 97.7238 25.3269 99.175 26.7724C100.626 28.2178 102.598 29.019 104.646 28.9957C107.77 28.9957 110.585 27.1123 111.778 24.2252C112.97 21.3381 112.304 18.0168 110.091 15.8124C107.878 13.6081 104.554 12.9555 101.672 14.1596ZM104.584 18.0536C106.422 18.0197 107.944 19.473 107.995 21.3104C108.044 22.2213 107.711 23.1114 107.074 23.7653C106.438 24.4193 105.558 24.7774 104.646 24.753C102.808 24.7531 101.313 23.2721 101.296 21.4341C101.279 19.596 102.746 18.0875 104.584 18.0536Z" fill="#19191B"/>
<path fill-rule="evenodd" clip-rule="evenodd" d="M116.017 7.70847C115.037 8.11409 114.399 9.06965 114.399 10.1296C114.413 11.5709 115.578 12.7358 117.02 12.7502C118.079 12.7502 119.035 12.1117 119.441 11.1324C119.846 10.1532 119.622 9.02602 118.873 8.27654C118.123 7.52706 116.996 7.30285 116.017 7.70847ZM119.209 14.031H114.84L114.834 28.5899H119.209V14.031Z" fill="#19191B"/>
<path fill-rule="evenodd" clip-rule="evenodd" d="M136.187 26.6C137.493 25.1575 138.17 23.2537 138.068 21.3104C138.171 19.3667 137.494 17.4623 136.188 16.0193C134.881 14.5764 133.054 13.7141 131.109 13.6236C129.47 13.5342 127.878 14.1859 126.772 15.3986V14.031H122.405V34.4118H126.772V27.2192C127.878 28.4328 129.47 29.0851 131.109 28.9957C133.053 28.9048 134.881 28.0426 136.187 26.6ZM130.179 17.9329C132.081 17.9011 133.653 19.4087 133.7 21.3104C133.766 22.2554 133.426 23.1837 132.764 23.8619C132.103 24.5402 131.184 24.904 130.237 24.8618C128.335 24.8621 126.788 23.3285 126.772 21.4263C126.756 19.5241 128.277 17.9647 130.179 17.9329Z" fill="#19191B"/>
<path d="M151.546 24.2207C151.546 27.5693 148.636 28.9957 145.492 28.9957C142.892 29.2312 140.412 27.8585 139.231 25.531L143.015 23.3766C143.33 24.4602 144.36 25.176 145.486 25.0943C146.533 25.0943 147.058 24.7737 147.058 24.1928C147.058 22.5899 139.894 23.4354 139.894 18.3987C139.894 15.2237 142.574 13.6237 145.602 13.6237C147.92 13.5503 150.095 14.7436 151.278 16.7384L147.552 18.7472C147.218 17.9676 146.45 17.4633 145.602 17.4663C144.844 17.4663 144.378 17.7604 144.378 18.281C144.384 19.9413 151.546 18.834 151.546 24.2207Z" fill="#19191B"/>
<path d="M167.5 14.031V28.5898H163.133V27.2207C162.111 28.4462 160.563 29.1069 158.971 28.9972C156.03 28.9972 153.53 26.9016 153.53 22.9678V14.031H157.897V22.3281C157.824 23.0299 158.062 23.7287 158.55 24.2386C159.038 24.7485 159.725 25.0179 160.43 24.9751C162.031 24.9751 163.137 24.0442 163.137 21.9766V14.0354L167.5 14.031Z" fill="#19191B"/>
<path d="M192.545 19.6501V28.5883H188.177V20.0281C188.177 18.5722 187.478 17.6413 186.081 17.6413C184.625 17.6413 183.809 18.6604 183.809 20.3781V28.5883H179.443V20.0281C179.443 18.5722 178.745 17.6413 177.346 17.6413C175.89 17.6413 175.075 18.6604 175.075 20.3781V28.5883H170.708V14.0295H175.075V15.3678C175.995 14.1614 177.464 13.5041 178.977 13.6222C180.497 13.5478 181.945 14.277 182.79 15.5428C183.774 14.2195 185.368 13.4942 187.012 13.6222C190.355 13.6236 192.545 16.0104 192.545 19.6501Z" fill="#19191B"/>
<path d="M196.239 13.9413C198.029 13.9413 199.48 12.4902 199.48 10.7002C199.48 8.91011 198.029 7.45898 196.239 7.45898C194.449 7.45898 192.997 8.91011 192.997 10.7002C192.997 12.4902 194.449 13.9413 196.239 13.9413Z" fill="#19191B"/>
</svg>
